<svg width="27" height="24" viewBox="0 0 27 24" fill="none" xmlns="http://www.w3.org/2000/svg">
<path d="M1.33333 0H25.3333C25.687 0 26.0261 0.140476 26.2761 0.390524C26.5262 0.640573 26.6667 0.979711 26.6667 1.33333V22.6667C26.6667 23.0203 26.5262 23.3594 26.2761 23.6095C26.0261 23.8595 25.687 24 25.3333 24H1.33333C0.979711 24 0.640573 23.8595 0.390524 23.6095C0.140476 23.3594 0 23.0203 0 22.6667V1.33333C0 0.979711 0.140476 0.640573 0.390524 0.390524C0.640573 0.140476 0.979711 0 1.33333 0V0ZM13.4133 11.5773L4.864 4.31733L3.13733 6.34933L13.4307 15.0893L23.5387 6.34267L21.7947 4.32533L13.4147 11.5773H13.4133Z" fill="black" fill-opacity="0.5"/>
</svg>
