<svg xmlns="http://www.w3.org/2000/svg" width="70" height="65" fill="none" viewBox="0 0 70 65"><path fill="url(#paint0_linear)" d="M35.339 64.8415C26.7405 64.8415 18.4941 61.4258 12.4141 55.3457C6.33398 49.2656 2.91823 41.0193 2.91823 32.4208C2.91823 23.8222 6.33398 15.5759 12.4141 9.49582C18.4941 3.41575 26.7405 -4.94669e-07 35.339 -1.41716e-06L35.339 32.4208L35.339 64.8415Z"/><path fill="url(#paint1_linear)" d="M53.8178 48.5581C49.5379 48.5581 45.4333 46.8579 42.407 43.8316C39.3806 40.8052 37.6805 36.7006 37.6805 32.4208C37.6805 28.1409 39.3806 24.0363 42.407 21.01C45.4333 17.9836 49.5379 16.2834 53.8178 16.2834L53.8178 32.4208L53.8178 48.5581Z"/><path fill="#000" d="M32.4208 64.8415C23.8223 64.8415 15.5759 61.4258 9.49584 55.3457C3.41577 49.2656 2.17443e-05 41.0193 2.1471e-05 32.4208C2.11977e-05 23.8222 3.41577 15.5759 9.49584 9.49582C15.5759 3.41575 23.8223 -4.94669e-07 32.4208 -1.41716e-06L32.4208 32.4208L32.4208 64.8415Z"/><path fill="#000" d="M50.8996 48.5581C46.6197 48.5581 42.5151 46.8579 39.4888 43.8316C36.4624 40.8052 34.7622 36.7006 34.7622 32.4208C34.7622 28.1409 36.4624 24.0363 39.4888 21.01C42.5151 17.9836 46.6197 16.2834 50.8996 16.2834L50.8996 32.4208L50.8996 48.5581Z"/><defs><linearGradient id="paint0_linear" x1="19.129" x2="19.359" y1="-5.423" y2="57.677" gradientUnits="userSpaceOnUse"><stop offset=".198" stop-color="#B16CEA"/><stop offset=".557" stop-color="#FF5E69"/><stop offset=".828" stop-color="#FF8A56"/><stop offset="1" stop-color="#FFA84B"/></linearGradient><linearGradient id="paint1_linear" x1="45.749" x2="45.864" y1="13.584" y2="44.992" gradientUnits="userSpaceOnUse"><stop offset=".198" stop-color="#B16CEA"/><stop offset=".557" stop-color="#FF5E69"/><stop offset=".828" stop-color="#FF8A56"/><stop offset="1" stop-color="#FFA84B"/></linearGradient></defs></svg>