<svg xmlns="http://www.w3.org/2000/svg" viewBox="0 0 400 300" width="406" height="306" class="illustration styles_illustrationTablet__1DWOa"><g id="_563_transferwise_outline" data-name="#563_transferwise_outline"><rect x="136.35" y="54.5" width="127.31" height="191" fill="#fff"></rect><path d="M263.65,246.5H136.35a1,1,0,0,1-1-1V54.5a1,1,0,0,1,1-1h127.3a1,1,0,0,1,1,1v191A1,1,0,0,1,263.65,246.5Zm-126.3-2h125.3V55.5H137.35Z" fill="#093f68"></path><rect x="136.35" y="75.52" width="127.31" height="92.4" fill="#fff"></rect><path d="M263.65,168.91H136.35a1,1,0,0,1-1-1V75.52a1,1,0,0,1,1-1h127.3a1,1,0,0,1,1,1v92.39A1,1,0,0,1,263.65,168.91Zm-126.3-2h125.3V76.52H137.35Z" fill="#093f68"></path><path d="M263.65,122.71H136.35a1,1,0,0,1,0-2h127.3a1,1,0,0,1,0,2Z" fill="#093f68"></path><rect x="203.51" y="75.52" width="60.14" height="46.2" fill="#68e1fd"></rect><path d="M263.65,122.71H203.51a1,1,0,0,1-1-1V75.52a1,1,0,0,1,1-1h60.14a1,1,0,0,1,1,1v46.19A1,1,0,0,1,263.65,122.71Zm-59.14-2h58.14V76.52H204.51Z" fill="#093f68"></path><path d="M214.84,98.61a4.26,4.26,0,0,1,4.48-4.42,3.86,3.86,0,0,1,4,2.79l-2,.55a2,2,0,0,0-2-1.47,2.56,2.56,0,0,0,0,5.11c1.22,0,1.91-.51,2-1.36H219.4V98.29h4v1.12c0,2.24-1.55,3.63-4.07,3.63A4.28,4.28,0,0,1,214.84,98.61Z" fill="#093f68"></path><path d="M224.42,94.42h4.76a2.34,2.34,0,0,1,2.59,2.26,1.77,1.77,0,0,1-.85,1.57v0a2.09,2.09,0,0,1,1.15,1.93c0,1.75-1.07,2.6-3.29,2.6h-4.36Zm4.38,3.25c.56,0,.85-.26.85-.74s-.29-.71-.85-.71h-2.28v1.45ZM229,101c.67,0,1-.29,1-.87s-.32-.84-1-.84h-2.47V101Z" fill="#093f68"></path><path d="M233.16,94.42h4.51a2.84,2.84,0,0,1,3.16,2.89c0,1.84-1.3,2.88-3.16,2.88h-2.38v2.62h-2.13Zm4.33,3.94a1.07,1.07,0,0,0,1.21-1.08c0-.76-.5-1-1.19-1h-2.22v2.12Z" fill="#093f68"></path><path d="M248.86,101.79a1,1,0,0,1-.75-.33l-3.47-3.93a1,1,0,1,1,1.5-1.33l2.68,3,2.73-3.43a1,1,0,1,1,1.57,1.25l-3.48,4.36a1,1,0,0,1-.75.37Z" fill="#093f68"></path><rect x="203.51" y="121.71" width="60.14" height="46.2" fill="#68e1fd"></rect><path d="M263.65,168.91H203.51a1,1,0,0,1-1-1v-46.2a1,1,0,0,1,1-1h60.14a1,1,0,0,1,1,1v46.2A1,1,0,0,1,263.65,168.91Zm-59.14-2h58.14v-44.2H204.51Z" fill="#093f68"></path><path d="M163,90.27H147.2a1,1,0,0,1,0-2H163a1,1,0,0,1,0,2Z" fill="#dfeaef"></path><rect x="147.2" y="100.81" width="38.86" height="5.63" fill="#093f68"></rect><path d="M186.06,107.44H147.2a1,1,0,0,1-1-1v-5.63a1,1,0,0,1,1-1h38.86a1,1,0,0,1,1,1v5.63A1,1,0,0,1,186.06,107.44Zm-37.86-2h36.86v-3.63H148.2Z" fill="#093f68"></path><path d="M163,135.6H147.2a1,1,0,0,1,0-2H163a1,1,0,0,1,0,2Z" fill="#dfeaef"></path><rect x="147.2" y="146.14" width="38.86" height="5.63" fill="#093f68"></rect><path d="M186.06,152.77H147.2a1,1,0,0,1-1-1v-5.63a1,1,0,0,1,1-1h38.86a1,1,0,0,1,1,1v5.63A1,1,0,0,1,186.06,152.77Zm-37.86-2h36.86v-3.63H148.2Z" fill="#093f68"></path><path d="M248.86,101.79a1,1,0,0,1-.75-.33l-3.47-3.93a1,1,0,1,1,1.5-1.33l2.68,3,2.73-3.43a1,1,0,1,1,1.57,1.25l-3.48,4.36a1,1,0,0,1-.75.37Z" fill="#093f68"></path><path d="M215.46,140.5h6.48v1.86H217.6v1.43h3.93v1.71H217.6V147H222v1.86h-6.49Z" fill="#093f68"></path><path d="M223.09,145.66V140.5h2.14v5c0,1.21.6,1.75,1.78,1.75s1.78-.54,1.78-1.75v-5h2.13v5.16c0,2.23-1.45,3.46-3.91,3.46S223.09,147.89,223.09,145.66Z" fill="#093f68"></path><path d="M240,148.9h-2.37l-1.76-2.79h-1.39v2.79h-2.14v-8.4h4.51c1.86,0,3.13,1,3.13,2.79a2.61,2.61,0,0,1-1.94,2.64v0Zm-3.33-4.61c.72,0,1.18-.35,1.18-1s-.41-1-1.18-1h-2.19v2Z" fill="#093f68"></path><path d="M248.23,148a1,1,0,0,1-.74-.34L244,143.72a1,1,0,1,1,1.5-1.32l2.68,3,2.73-3.43a1,1,0,0,1,1.57,1.24L249,147.62a1,1,0,0,1-.76.37Z" fill="#093f68"></path><path d="M146.2,68.74a1,1,0,0,1-.65-1.76l7.88-6.76a1,1,0,0,1,1.31,1.52l-7.89,6.76A1,1,0,0,1,146.2,68.74Z" fill="#68e1fd"></path><path d="M154.08,68.74a1,1,0,0,1-.65-.24l-7.88-6.76a1,1,0,0,1,1.3-1.52L154.74,67a1,1,0,0,1,.1,1.41A1,1,0,0,1,154.08,68.74Z" fill="#68e1fd"></path><path d="M226,178.76H174a1,1,0,0,1,0-2h52a1,1,0,0,1,0,2Z" fill="#dfeaef"></path><path d="M236.75,188.24H163.26a1,1,0,0,1,0-2h73.49a1,1,0,0,1,0,2Z" fill="#dfeaef"></path><path d="M233.07,211.69H166.93a1,1,0,0,1-1-1v-13a1,1,0,0,1,1-1h66.14a1,1,0,0,1,1,1v13A1,1,0,0,1,233.07,211.69Zm-65.14-2h64.14v-11H167.93Z" fill="#68e1fd"></path><rect x="136.35" y="226.41" width="127.31" height="19.09" fill="#70cc40"></rect><path d="M263.65,246.5H136.35a1,1,0,0,1-1-1V226.41a1,1,0,0,1,1-1h127.3a1,1,0,0,1,1,1V245.5A1,1,0,0,1,263.65,246.5Zm-126.3-2h125.3V227.41H137.35Z" fill="#093f68"></path><path d="M164,168.3v33.61a5,5,0,0,1-5,5H147.47v12.52L139.8,206.9H113.66a5,5,0,0,1-5-5V168.3a5,5,0,0,1,5-5H159A5,5,0,0,1,164,168.3Z" fill="#68e1fd"></path><path d="M147.47,220.42a1,1,0,0,1-.86-.48l-7.37-12H113.66a6,6,0,0,1-6-6V168.3a6,6,0,0,1,6-6H159a6,6,0,0,1,6,6v33.61a6,6,0,0,1-6,6H148.47v11.52a1,1,0,0,1-.73,1A.84.84,0,0,1,147.47,220.42Zm-33.81-56.1a4,4,0,0,0-4,4v33.61a4,4,0,0,0,4,4H139.8a1,1,0,0,1,.86.48l5.81,9.49v-9a1,1,0,0,1,1-1H159a4,4,0,0,0,4-4V168.3a4,4,0,0,0-4-4Z" fill="#093f68"></path><path d="M143,174.26H131.35c.72,1.17,1.33,2.25,2,3.26a1,1,0,0,1-.19,1.59c-1.17,1.11-2.27,2.3-3.59,3.66h7.06c-.43.91-.76,1.69-1.15,2.43a.82.82,0,0,1-.6.34c-3.83,0-7.66,0-11.74,0,.36-.4.56-.65.78-.88,1.87-1.87,3.73-3.74,5.63-5.58a.92.92,0,0,0,.17-1.37c-1.09-1.76-2.12-3.56-3.17-5.35-.15-.27-.29-.54-.49-.92h21.42c-.12.35-.2.64-.31.91Q141.93,185,136.67,197.7a1.1,1.1,0,0,1-1.25.83c-.77,0-1.55,0-2.51,0Z" fill="#fff"></path></g></svg>