<svg xmlns="http://www.w3.org/2000/svg" viewBox="0 0 400 300" width="406" height="306" class="illustration styles_illustrationTablet__1DWOa"><g id="_516_data_and_settings_flatline" data-name="#516_data_and_settings_flatline"><path d="M77.76,248.22H322.24a0,0,0,0,1,0,0v5.12a4.81,4.81,0,0,1-4.81,4.81H82.56a4.81,4.81,0,0,1-4.81-4.81v-5.12A0,0,0,0,1,77.76,248.22Z"></path><path d="M318.35,252.49H81.65A3.88,3.88,0,0,1,78,247.36L97.7,189.1a12.79,12.79,0,0,1,12.1-8.67H290.2a12.79,12.79,0,0,1,12.1,8.67L322,247.36A3.88,3.88,0,0,1,318.35,252.49Z" fill="#fff"></path><path d="M318.35,253H81.65a4.36,4.36,0,0,1-4.12-5.74L97.27,189a13.22,13.22,0,0,1,12.53-9H290.2a13.22,13.22,0,0,1,12.53,9l19.74,58.25a4.36,4.36,0,0,1-4.12,5.74ZM109.8,180.88a12.33,12.33,0,0,0-11.67,8.37L78.4,247.5A3.43,3.43,0,0,0,81.65,252h236.7a3.43,3.43,0,0,0,3.25-4.53l-19.73-58.25a12.33,12.33,0,0,0-11.67-8.37Z" fill="#231f20"></path><path d="M296,218.3H104.4a3.2,3.2,0,0,1-3.07-4.12l7-23.64a3.55,3.55,0,0,1,3.39-2.53H287.81a4,4,0,0,1,3.8,2.83l7.07,23.82A2.83,2.83,0,0,1,296,218.3ZM111.75,189a2.55,2.55,0,0,0-2.44,1.81l-7,23.65a2.21,2.21,0,0,0,2.11,2.83H296a1.84,1.84,0,0,0,1.76-2.36l-7.08-23.82a3,3,0,0,0-2.84-2.11Z" fill="#d1d3d4"></path><path d="M230.25,244.62h-60.5a3.36,3.36,0,0,1-2.65-1.27,3.39,3.39,0,0,1-.68-2.86l2.89-13.15a5.26,5.26,0,0,1,5.09-4.09h51.2a5.26,5.26,0,0,1,5.09,4.09l2.89,13.15a3.39,3.39,0,0,1-.68,2.86A3.36,3.36,0,0,1,230.25,244.62ZM174.4,224.25a4.23,4.23,0,0,0-4.11,3.31L167.4,240.7a2.4,2.4,0,0,0,2.35,2.92h60.5a2.4,2.4,0,0,0,2.35-2.92l-2.89-13.14a4.23,4.23,0,0,0-4.11-3.31Z" fill="#d1d3d4"></path><rect x="100.56" y="54.78" width="198.88" height="125.65" rx="6.51" fill="#231f20"></rect><path d="M292.93,180.93H107.07a7,7,0,0,1-7-7V61.29a7,7,0,0,1,7-7H292.93a7,7,0,0,1,7,7V173.92A7,7,0,0,1,292.93,180.93ZM107.07,55.28a6,6,0,0,0-6,6V173.92a6,6,0,0,0,6,6H292.93a6,6,0,0,0,6-6V61.29a6,6,0,0,0-6-6Z" fill="#231f20"></path><rect x="110.09" y="63.44" width="179.83" height="108.15" fill="#e6e7e8"></rect><path d="M138.08,66.29V205.54C138.08,219,165.8,230,200,230s61.92-10.94,61.92-24.43V66.29Z" fill="#68e1fd"></path><path d="M200,230.47c-34.42,0-62.42-11.19-62.42-24.93V66.29a.5.5,0,0,1,.5-.5H261.92a.5.5,0,0,1,.5.5V205.54C262.42,219.28,234.42,230.47,200,230.47ZM138.58,66.79V205.54c0,13.19,27.55,23.93,61.42,23.93s61.42-10.74,61.42-23.93V66.79Z" fill="#231f20"></path><ellipse cx="200" cy="66.29" rx="61.92" ry="24.43" fill="#68e1fd"></ellipse><path d="M200,91.22c-34.42,0-62.42-11.19-62.42-24.93s28-24.94,62.42-24.94,62.42,11.19,62.42,24.94S234.42,91.22,200,91.22Zm0-48.87c-33.87,0-61.42,10.74-61.42,23.94S166.13,90.22,200,90.22s61.42-10.74,61.42-23.93S233.87,42.35,200,42.35Z" fill="#231f20"></path><path d="M200,133.49c-34.42,0-62.42-11.18-62.42-24.93a.5.5,0,0,1,.5-.5.5.5,0,0,1,.5.5c0,13.2,27.55,23.93,61.42,23.93s61.42-10.73,61.42-23.93a.5.5,0,0,1,.5-.5.5.5,0,0,1,.5.5C262.42,122.31,234.42,133.49,200,133.49Z" fill="#231f20"></path><path d="M200,181.4c-34.42,0-62.42-11.19-62.42-24.94a.5.5,0,0,1,.5-.5.51.51,0,0,1,.5.5c0,13.2,27.55,23.94,61.42,23.94s61.42-10.74,61.42-23.94a.51.51,0,0,1,.5-.5.5.5,0,0,1,.5.5C262.42,170.21,234.42,181.4,200,181.4Z" fill="#231f20"></path><path d="M154,91.22l-.17,0c-6.86-2.43-9.86-6.14-10-6.3a.5.5,0,1,1,.78-.62s3,3.65,9.54,6a.5.5,0,0,1-.17,1Z" fill="#231f20"></path><path d="M159,92.68h-.11l-2.25-.47a.5.5,0,0,1,.2-1l2.26.47a.5.5,0,0,1,.38.6A.48.48,0,0,1,159,92.68Z" fill="#231f20"></path><path d="M154,135.83l-.17,0c-6.86-2.43-9.86-6.14-10-6.3a.5.5,0,0,1,.08-.7.5.5,0,0,1,.7.08s3,3.65,9.54,6a.5.5,0,0,1-.17,1Z" fill="#231f20"></path><path d="M159,137.29h-.11l-2.25-.47a.5.5,0,0,1,.2-1l2.26.47a.49.49,0,0,1,.38.59A.48.48,0,0,1,159,137.29Z" fill="#231f20"></path><path d="M154,180.44l-.17,0c-6.86-2.43-9.86-6.14-10-6.3a.5.5,0,0,1,.08-.7.5.5,0,0,1,.7.08s3,3.65,9.54,6a.5.5,0,0,1-.17,1Z" fill="#231f20"></path><path d="M159,181.9h-.11l-2.25-.47a.5.5,0,0,1-.39-.59.49.49,0,0,1,.59-.38l2.26.47a.49.49,0,0,1,.38.59A.48.48,0,0,1,159,181.9Z" fill="#231f20"></path><path d="M187.27,174.68c.85-2.49,1.68-5,2.55-7.45.46-1.29,1-2.55,1.5-3.81a3.65,3.65,0,0,1,3.94-2.41c2,.22,4,.65,6,1a18.92,18.92,0,0,0,3.24.42,3.61,3.61,0,0,0,2.23-.72c2.3-2.19,4.51-4.49,6.69-6.81a3.45,3.45,0,0,0,.68-3.18c-.51-2.43-1.1-4.84-1.6-7.27a9.7,9.7,0,0,1-.26-2.88,2.68,2.68,0,0,1,.94-1.84,44.25,44.25,0,0,1,12-5.48,3,3,0,0,1,3.44,1.24c1.53,2.1,3.14,4.16,4.61,6.31a4.9,4.9,0,0,0,4.74,2.39c2.66-.2,5.32-.24,8-.37a3,3,0,0,0,2.41-1.45c.95-1.4,1.84-2.84,2.77-4.26.8-1.22,1.59-2.44,2.44-3.62a3.05,3.05,0,0,1,3.67-1.27c3.69,1.27,7.37,2.58,11,4a3.21,3.21,0,0,1,2,3.55c-.19,2.05-.66,4.06-1,6.1-.16,1-.3,1.91-.38,2.88a4,4,0,0,0,1.23,3.38c1.94,1.83,3.91,3.63,5.78,5.54a4.35,4.35,0,0,0,4.32,1.22c2.63-.57,5.25-1.21,7.88-1.78a3.52,3.52,0,0,1,4.42,2.1q2.25,4.71,4.34,9.5c1,2.32.65,3.67-1.36,5.25-1.35,1.08-2.81,2-4.2,3-1,.74-2,1.51-2.91,2.32a3.39,3.39,0,0,0-1.23,2.73c.07,2.76.11,5.52.24,8.27a4.32,4.32,0,0,0,2.2,3.66c1.51.91,3,1.77,4.54,2.69a30.52,30.52,0,0,1,2.71,1.82,3.25,3.25,0,0,1,1.22,3.95c-1.21,3.33-2.46,6.64-3.71,10a8,8,0,0,1-.82,1.41,2.92,2.92,0,0,1-3.09,1.45L283.27,215c-.18,0-.36,0-.54-.09a5.16,5.16,0,0,0-5.48,1.92c-1.35,1.6-2.88,3-4.33,4.55a5.19,5.19,0,0,0-1.33,5.19c.59,2.32,1.16,4.65,1.64,7s0,3.55-2.25,4.64c-3.25,1.56-6.54,3-9.85,4.43a3.28,3.28,0,0,1-4.36-1.14c-1.28-1.61-2.45-3.31-3.65-5-2.57-3.61-3.21-3.93-7.64-3.71-1.73.09-3.45.2-5.17.3a4.74,4.74,0,0,0-4.06,2.36c-1.06,1.74-2.06,3.51-3.16,5.21a16.82,16.82,0,0,1-2,2.47,2.4,2.4,0,0,1-2.73.7c-3.49-1.29-7-2.58-10.46-3.9a7.41,7.41,0,0,1-1.33-.77,2.92,2.92,0,0,1-1.47-3.08c.38-2.37.78-4.73,1.15-7.09.11-.72.17-1.44.21-2.17a3.78,3.78,0,0,0-1.19-3.2c-1.9-1.74-3.78-3.5-5.66-5.27a4.17,4.17,0,0,0-4.11-1c-2.32.58-4.66,1.09-7,1.62l-.27.07c-3.05.55-4,.15-5.36-2.65-1.47-3.12-2.81-6.3-4.1-9.5-.8-2-.45-3.06,1.26-4.36s3.75-2.78,5.71-4.05a5.59,5.59,0,0,0,2.79-5.5c-.17-2.48-.23-5-.36-7.45a3.08,3.08,0,0,0-1.45-2.59c-2.06-1.32-4.15-2.62-6.21-3.95-1.34-.88-2.71-1.75-3.26-3.4Zm79,13.86a23.55,23.55,0,0,0-23.74-23.6c-10.88-.05-23.22,9.49-23.21,23.63A23.59,23.59,0,0,0,242.67,212C257.81,212.06,266.9,199,266.25,188.54Z" fill="#fff"></path><path d="M229.24,244.51a2.83,2.83,0,0,1-1.05-.2l-2.85-1.06c-2.54-.94-5.07-1.88-7.6-2.84a7.29,7.29,0,0,1-1.26-.7l-.18-.12a3.44,3.44,0,0,1-1.68-3.58c.16-1,.33-2.09.51-3.14.21-1.32.43-2.63.64-4,.09-.62.16-1.29.21-2.12a3.31,3.31,0,0,0-1-2.8c-1.65-1.5-3.27-3-4.9-4.56l-.76-.71a3.64,3.64,0,0,0-3.65-.89c-1.63.4-3.27.77-4.9,1.14l-2.2.5-.19.05c-3.34.61-4.5,0-5.9-2.93-1.62-3.43-3.05-6.89-4.11-9.52-.88-2.16-.5-3.5,1.42-5,2.16-1.64,4-2.93,5.74-4.07a5.12,5.12,0,0,0,2.57-5.05c-.11-1.54-.17-3.08-.24-4.62,0-.94-.08-1.89-.13-2.83a2.58,2.58,0,0,0-1.22-2.2l-2.62-1.66c-1.2-.76-2.4-1.52-3.59-2.29-1.43-.93-2.87-1.86-3.46-3.66a.45.45,0,0,1,0-.16v-.91a.41.41,0,0,1,0-.16l.76-2.23c.59-1.75,1.18-3.49,1.79-5.23.48-1.34,1-2.63,1.51-3.83a4.17,4.17,0,0,1,4.45-2.72c1.34.15,2.69.39,4,.62.68.12,1.36.25,2,.35l.8.14a11.41,11.41,0,0,0,2.35.28,3.19,3.19,0,0,0,1.89-.58c2.45-2.34,4.75-4.74,6.67-6.79a2.89,2.89,0,0,0,.56-2.73c-.23-1.08-.47-2.15-.71-3.22-.3-1.35-.61-2.7-.89-4.06a10.67,10.67,0,0,1-.27-3,3.19,3.19,0,0,1,1.17-2.21,44.11,44.11,0,0,1,12.15-5.54,3.48,3.48,0,0,1,4,1.42c.54.75,1.09,1.48,1.65,2.22,1,1.33,2,2.71,3,4.11a4.39,4.39,0,0,0,4.28,2.17c1.73-.13,3.49-.19,5.19-.26l2.81-.11a2.52,2.52,0,0,0,2-1.22c.56-.83,1.1-1.68,1.64-2.52.37-.58.75-1.17,1.13-1.74l.4-.62c.66-1,1.33-2,2-3a3.57,3.57,0,0,1,4.24-1.45c4.44,1.53,7.84,2.76,11,4a3.7,3.7,0,0,1,2.3,4.07c-.13,1.37-.38,2.75-.63,4.07-.12.69-.25,1.37-.36,2-.14.9-.29,1.87-.37,2.85a3.44,3.44,0,0,0,1.08,3l1.36,1.28c1.47,1.38,3,2.81,4.43,4.27a3.81,3.81,0,0,0,3.85,1.09c1.28-.27,2.56-.57,3.83-.86s2.7-.63,4.06-.92a4,4,0,0,1,5,2.37c1.5,3.15,3,6.35,4.34,9.52,1.1,2.52.7,4.11-1.5,5.85-.8.63-1.65,1.23-2.48,1.8-.58.41-1.16.81-1.73,1.24-1.06.78-2,1.53-2.88,2.3a2.86,2.86,0,0,0-1.06,2.34l0,1.71c.05,2.15.09,4.37.2,6.55a3.78,3.78,0,0,0,2,3.25c.64.39,1.29.77,1.94,1.15.87.51,1.74,1,2.6,1.54a30,30,0,0,1,2.76,1.86,3.76,3.76,0,0,1,1.38,4.51c-1.15,3.16-2.37,6.41-3.72,9.95a6.4,6.4,0,0,1-.79,1.4L294,215a3.45,3.45,0,0,1-3.59,1.67l-4.68-.78-2.68-.45a2.32,2.32,0,0,1-.38-.06,4.66,4.66,0,0,0-5,1.76c-.95,1.12-2,2.19-3,3.22l-1.32,1.35a4.68,4.68,0,0,0-1.2,4.72c.56,2.22,1.15,4.6,1.64,7,.55,2.74-.06,4-2.53,5.19-3,1.42-6.18,2.88-9.86,4.44a3.79,3.79,0,0,1-4.95-1.29c-1.06-1.33-2.06-2.74-3-4.1l-.65-.91c-2.48-3.49-3-3.72-7.2-3.5l-2.94.17-2.24.12a4.27,4.27,0,0,0-3.66,2.13l-1,1.75c-.68,1.15-1.38,2.33-2.12,3.47a16.37,16.37,0,0,1-2,2.55A3.08,3.08,0,0,1,229.24,244.51Zm-22.45-27.82A4.51,4.51,0,0,1,210,218l.75.71c1.63,1.53,3.25,3,4.9,4.55a4.26,4.26,0,0,1,1.35,3.6,18.5,18.5,0,0,1-.22,2.22c-.2,1.32-.42,2.63-.64,3.95l-.51,3.13a2.45,2.45,0,0,0,1.25,2.59l.19.12a5.39,5.39,0,0,0,1.05.6c2.53,1,5.06,1.9,7.6,2.85l2.85,1.06a1.91,1.91,0,0,0,2.2-.59,16.06,16.06,0,0,0,1.93-2.39c.73-1.12,1.42-2.3,2.1-3.44.35-.58.69-1.17,1-1.75a5.22,5.22,0,0,1,4.46-2.61l2.23-.13,2.94-.17c4.58-.23,5.41.17,8.08,3.92l.65.91c.95,1.35,1.94,2.75,3,4.06a2.81,2.81,0,0,0,3.78,1c3.66-1.56,6.87-3,9.82-4.42,2-1,2.44-1.82,2-4.09s-1.07-4.76-1.63-7a5.68,5.68,0,0,1,1.45-5.67l1.33-1.36c1-1,2.05-2.06,3-3.16a5.61,5.61,0,0,1,6-2.08l.29,0,.22,0,2.49.42,4.68.78a2.44,2.44,0,0,0,2.59-1.24l.08-.12a6.09,6.09,0,0,0,.69-1.19c1.34-3.54,2.56-6.79,3.71-9.94a2.75,2.75,0,0,0-1.06-3.38,30.56,30.56,0,0,0-2.66-1.8c-.86-.52-1.72-1-2.59-1.53-.65-.38-1.3-.76-1.94-1.15a4.83,4.83,0,0,1-2.45-4.07c-.1-2.19-.15-4.42-.2-6.57l0-1.71a3.91,3.91,0,0,1,1.4-3.12c.9-.78,1.87-1.55,2.94-2.35l1.76-1.25c.81-.56,1.65-1.15,2.43-1.77,1.84-1.46,2.13-2.55,1.21-4.66-1.38-3.16-2.83-6.35-4.33-9.49a3.05,3.05,0,0,0-3.86-1.82c-1.35.29-2.7.6-4,.91l-3.84.87a4.8,4.8,0,0,1-4.78-1.36c-1.43-1.45-2.94-2.88-4.41-4.25l-1.36-1.28a4.45,4.45,0,0,1-1.38-3.78c.08-1,.23-2,.37-2.92.12-.7.24-1.39.37-2.08.24-1.3.49-2.66.62-4a2.79,2.79,0,0,0-1.67-3c-3.18-1.22-6.57-2.44-11-4a2.57,2.57,0,0,0-3.11,1.08c-.69,1-1.36,2-2,3l-.41.62c-.38.58-.75,1.16-1.12,1.74-.55.85-1.09,1.7-1.65,2.53a3.51,3.51,0,0,1-2.8,1.67l-2.82.11c-1.69.07-3.44.13-5.15.26a5.39,5.39,0,0,1-5.19-2.61c-.94-1.38-2-2.75-3-4.07-.56-.74-1.11-1.48-1.66-2.23a2.48,2.48,0,0,0-2.9-1,42.83,42.83,0,0,0-11.87,5.41,2.26,2.26,0,0,0-.72,1.47,9.89,9.89,0,0,0,.26,2.73c.28,1.35.58,2.7.89,4,.24,1.08.48,2.15.71,3.23a3.89,3.89,0,0,1-.81,3.62c-1.93,2.06-4.24,4.48-6.71,6.83a4.06,4.06,0,0,1-2.56.86,13.37,13.37,0,0,1-2.55-.29l-.78-.14-2.06-.35c-1.28-.23-2.61-.47-3.92-.62a3.15,3.15,0,0,0-3.42,2.12c-.5,1.18-1,2.46-1.49,3.78-.61,1.73-1.2,3.47-1.79,5.21l-.73,2.15v.75c.5,1.42,1.72,2.2,3,3s2.42,1.56,3.62,2.31l2.62,1.67a3.62,3.62,0,0,1,1.68,3c.05.94.09,1.89.13,2.84.06,1.53.13,3.07.23,4.6a6.09,6.09,0,0,1-3,6c-1.73,1.12-3.54,2.4-5.68,4-1.54,1.17-1.8,2-1.1,3.78,1.06,2.61,2.49,6,4.1,9.47,1.2,2.54,1.92,2.9,4.81,2.36l2.34-.53c1.64-.37,3.27-.74,4.89-1.14A5.85,5.85,0,0,1,206.79,216.69Zm35.92-4.15h-.05a24,24,0,0,1-23.86-24,23.71,23.71,0,0,1,7.09-16.93,24.14,24.14,0,0,1,16.53-7.2h.09a24,24,0,0,1,24.24,24.09c.35,5.67-2.05,11.83-6.43,16.48A23.89,23.89,0,0,1,242.71,212.54Zm-.29-47.1a23.14,23.14,0,0,0-15.83,6.91,22.91,22.91,0,0,0,16.08,39.19h0a22.92,22.92,0,0,0,16.88-7.21c4.2-4.46,6.5-10.35,6.16-15.76v0a23,23,0,0,0-23.24-23.1Z" fill="#231f20"></path><path d="M262.17,105.41c.42-1.24.83-2.48,1.27-3.72.23-.64.49-1.27.75-1.9a1.83,1.83,0,0,1,2-1.21c1,.11,2,.32,3,.48a9,9,0,0,0,1.62.21,1.7,1.7,0,0,0,1.11-.36c1.15-1.09,2.26-2.24,3.34-3.4a1.71,1.71,0,0,0,.35-1.59c-.26-1.21-.55-2.42-.8-3.63a5,5,0,0,1-.14-1.44,1.36,1.36,0,0,1,.48-.92,22,22,0,0,1,6-2.74,1.51,1.51,0,0,1,1.72.62c.76,1,1.57,2.08,2.3,3.15a2.44,2.44,0,0,0,2.37,1.2c1.33-.1,2.66-.12,4-.19a1.47,1.47,0,0,0,1.2-.72c.48-.7.93-1.42,1.39-2.13s.79-1.22,1.22-1.81a1.51,1.51,0,0,1,1.83-.63q2.78.94,5.5,2a1.62,1.62,0,0,1,1,1.78c-.1,1-.33,2-.5,3-.07.47-.14,1-.18,1.44a2,2,0,0,0,.61,1.69c1,.91,1.95,1.81,2.89,2.76a2.18,2.18,0,0,0,2.16.62c1.31-.29,2.62-.61,3.94-.89a1.74,1.74,0,0,1,2.2,1c.75,1.56,1.48,3.15,2.17,4.74a1.87,1.87,0,0,1-.68,2.63c-.67.54-1.4,1-2.09,1.52-.5.37-1,.75-1.46,1.16a1.65,1.65,0,0,0-.61,1.36c0,1.38.05,2.76.11,4.13a2.17,2.17,0,0,0,1.11,1.83c.75.46,1.51.89,2.26,1.35a14,14,0,0,1,1.36.91,1.62,1.62,0,0,1,.61,2q-.92,2.49-1.86,5a3.19,3.19,0,0,1-.41.71,1.46,1.46,0,0,1-1.54.73l-3.58-.6-.27,0a2.56,2.56,0,0,0-2.74,1c-.68.79-1.44,1.51-2.16,2.27a2.57,2.57,0,0,0-.67,2.59c.29,1.16.58,2.32.82,3.5a1.71,1.71,0,0,1-1.13,2.31q-2.43,1.17-4.92,2.22a1.64,1.64,0,0,1-2.18-.57c-.64-.81-1.22-1.66-1.82-2.5-1.29-1.8-1.61-2-3.82-1.85l-2.59.15a2.38,2.38,0,0,0-2,1.18c-.52.87-1,1.75-1.57,2.61a8.4,8.4,0,0,1-1,1.23,1.2,1.2,0,0,1-1.36.35c-1.75-.65-3.49-1.29-5.23-1.95a3.72,3.72,0,0,1-.67-.38,1.48,1.48,0,0,1-.73-1.55c.19-1.18.39-2.36.57-3.54a9.88,9.88,0,0,0,.11-1.08,1.87,1.87,0,0,0-.6-1.6c-1-.87-1.88-1.75-2.82-2.63a2.08,2.08,0,0,0-2.06-.51c-1.16.29-2.33.54-3.49.81l-.13,0c-1.53.28-2,.08-2.68-1.32-.74-1.56-1.41-3.15-2.06-4.75a1.58,1.58,0,0,1,.63-2.18c.93-.7,1.88-1.39,2.86-2a2.81,2.81,0,0,0,1.4-2.75c-.09-1.24-.12-2.48-.19-3.72a1.53,1.53,0,0,0-.72-1.3l-3.1-2a3.41,3.41,0,0,1-1.63-1.7Zm39.47,6.93a11.76,11.76,0,0,0-11.87-11.79,12,12,0,0,0-11.6,11.8,11.79,11.79,0,0,0,11.68,11.73A11.64,11.64,0,0,0,301.64,112.34Z" fill="#fff"></path><path d="M283.15,140.57a1.75,1.75,0,0,1-.62-.12l-1.48-.55-3.75-1.4a3.9,3.9,0,0,1-.67-.38l-.09-.06a1.93,1.93,0,0,1-1-2l.25-1.56c.11-.66.22-1.32.32-2,0-.35.08-.69.1-1a1.37,1.37,0,0,0-.43-1.2l-2.53-2.35-.3-.29a1.6,1.6,0,0,0-1.6-.38l-2.49.58-1,.23-.16,0c-1.78.33-2.47,0-3.22-1.6-.63-1.35-1.27-2.82-2.06-4.77a2.06,2.06,0,0,1,.79-2.77c1.08-.82,2-1.47,2.89-2a2.3,2.3,0,0,0,1.17-2.3c-.06-.77-.09-1.54-.12-2.32,0-.47,0-.94-.07-1.41a1.06,1.06,0,0,0-.49-.9l-1.3-.82L263.52,108a3.93,3.93,0,0,1-1.83-2,.77.77,0,0,1,0-.15v-.46a.88.88,0,0,1,0-.16l.37-1.09c.3-.88.6-1.76.91-2.64.23-.65.49-1.29.76-1.93a2.31,2.31,0,0,1,2.48-1.51c.68.08,1.35.2,2,.31q.51.1,1,.18l.4.07a5.68,5.68,0,0,0,1.13.13,1.32,1.32,0,0,0,.78-.22c1.22-1.16,2.36-2.36,3.32-3.38a1.23,1.23,0,0,0,.22-1.14l-.36-1.61c-.15-.68-.3-1.35-.44-2a5.13,5.13,0,0,1-.14-1.59,1.79,1.79,0,0,1,.7-1.29,22.17,22.17,0,0,1,6.14-2.8,2,2,0,0,1,2.25.81l.82,1.1c.51.68,1,1.36,1.5,2.06a1.93,1.93,0,0,0,1.91,1c.88-.07,1.75-.1,2.63-.13l1.38,0a1,1,0,0,0,.81-.51c.28-.41.54-.83.81-1.24l.57-.88.22-.34c.33-.5.66-1,1-1.49a2,2,0,0,1,2.4-.81c2.22.76,3.92,1.37,5.52,2a2.1,2.1,0,0,1,1.31,2.29c-.06.69-.19,1.39-.31,2.05-.07.34-.13.68-.18,1a13.07,13.07,0,0,0-.18,1.4,1.47,1.47,0,0,0,.45,1.28l.7.66c.74.7,1.49,1.39,2.21,2.12a1.66,1.66,0,0,0,1.69.48l1.91-.43c.68-.16,1.35-.32,2-.46a2.26,2.26,0,0,1,2.77,1.32c.75,1.58,1.48,3.18,2.17,4.76a2.34,2.34,0,0,1-.83,3.22c-.4.32-.82.62-1.25.91l-.86.62c-.52.38-1,.76-1.42,1.13a1.21,1.21,0,0,0-.44,1l0,.86c0,1.09,0,2.17.09,3.26a1.68,1.68,0,0,0,.87,1.43l.93.55,1.33.79a16.43,16.43,0,0,1,1.41.94,2.12,2.12,0,0,1,.77,2.54q-.92,2.5-1.86,5a3.49,3.49,0,0,1-.42.74,2,2,0,0,1-2.08,1l-2.76-.46-.83-.14-.3,0a2.07,2.07,0,0,0-2.24.8c-.48.57-1,1.11-1.53,1.62l-.65.67a2.09,2.09,0,0,0-.55,2.13c.29,1.12.58,2.32.83,3.52a2.21,2.21,0,0,1-1.4,2.87c-1.47.7-3.08,1.43-4.94,2.22a2.13,2.13,0,0,1-2.77-.72c-.53-.67-1-1.38-1.52-2.06l-.32-.46c-1.19-1.67-1.35-1.74-3.39-1.64l-1.45.08-1.13.07a1.9,1.9,0,0,0-1.63.94c-.18.29-.35.59-.52.88-.35.58-.7,1.17-1.06,1.74a9.23,9.23,0,0,1-1.06,1.31A1.76,1.76,0,0,1,283.15,140.57Zm-11.24-14.41a2.5,2.5,0,0,1,1.77.72l.3.29,2.52,2.34a2.37,2.37,0,0,1,.76,2,11,11,0,0,1-.11,1.14c-.1.66-.21,1.32-.32,2l-.26,1.56a1,1,0,0,0,.52,1l.09.06a2.38,2.38,0,0,0,.48.27l3.74,1.4,1.48.55a.7.7,0,0,0,.83-.23,7.85,7.85,0,0,0,.94-1.16c.36-.55.7-1.13,1-1.7.17-.3.35-.59.53-.89a2.86,2.86,0,0,1,2.43-1.42l1.12-.07,1.46-.08c2.39-.12,2.87.11,4.26,2.06l.32.46c.48.67,1,1.37,1.48,2a1.16,1.16,0,0,0,1.6.42c1.84-.79,3.44-1.51,4.9-2.21.91-.44,1.06-.73.85-1.76s-.53-2.37-.81-3.47a3.07,3.07,0,0,1,.79-3.07l.66-.68c.5-.5,1-1,1.48-1.57A3.07,3.07,0,0,1,310,125l.12,0,.12,0,.82.13,2.76.46a1,1,0,0,0,1.05-.51,2.9,2.9,0,0,0,.35-.6c.63-1.66,1.25-3.31,1.86-5a1.13,1.13,0,0,0-.45-1.41,15,15,0,0,0-1.31-.88l-1.31-.78-.95-.56a2.65,2.65,0,0,1-1.35-2.23c-.05-1.1-.07-2.19-.09-3.29l0-.86a2.16,2.16,0,0,1,.78-1.75c.46-.4.95-.79,1.49-1.19l.88-.63c.41-.28.82-.56,1.2-.87a1.4,1.4,0,0,0,.53-2c-.68-1.57-1.41-3.16-2.16-4.73a1.28,1.28,0,0,0-1.65-.78l-2,.46-1.93.43a2.64,2.64,0,0,1-2.62-.75c-.7-.71-1.44-1.4-2.18-2.1l-.69-.65a2.46,2.46,0,0,1-.77-2.09c0-.5.11-1,.19-1.48l.18-1c.12-.64.25-1.31.31-2a1.14,1.14,0,0,0-.68-1.26c-1.58-.61-3.27-1.22-5.48-2a1,1,0,0,0-1.27.45c-.34.48-.66,1-1,1.46l-.22.33-.57.88c-.27.42-.54.84-.82,1.26a2,2,0,0,1-1.59.94l-1.4.06c-.86,0-1.72.06-2.58.13a3,3,0,0,1-2.82-1.41c-.47-.69-1-1.36-1.47-2-.28-.37-.56-.74-.83-1.12a1,1,0,0,0-1.18-.42,21.19,21.19,0,0,0-5.87,2.67,1,1,0,0,0-.24.55,4.68,4.68,0,0,0,.13,1.29c.13.67.29,1.34.44,2s.24,1.08.35,1.62a2.16,2.16,0,0,1-.46,2c-1,1-2.12,2.25-3.36,3.43a2.31,2.31,0,0,1-1.45.49,6.45,6.45,0,0,1-1.33-.15l-.38-.06-1-.18c-.64-.12-1.29-.23-1.94-.3a1.33,1.33,0,0,0-1.45.9c-.26.62-.51,1.24-.74,1.87-.31.88-.6,1.75-.9,2.63l-.34,1v.28a3,3,0,0,0,1.38,1.35l1.82,1.16,1.3.83a2,2,0,0,1,.95,1.69c0,.48.05,1,.07,1.42,0,.77.06,1.53.11,2.3a3.26,3.26,0,0,1-1.62,3.2c-.87.56-1.76,1.19-2.82,2-.69.52-.78.83-.47,1.6.78,1.93,1.41,3.38,2,4.72.55,1.16.8,1.28,2.14,1l.22.46-.11-.49,1-.23c.82-.18,1.65-.37,2.47-.57A2.87,2.87,0,0,1,271.91,126.16Zm18-1.58h0a12.27,12.27,0,0,1-.12-24.53h0a12.22,12.22,0,0,1,12.36,12.28,11.63,11.63,0,0,1-3.28,8.42A12.21,12.21,0,0,1,289.88,124.58Zm-.15-23.53a11.31,11.31,0,0,0-7.74,3.38,11.13,11.13,0,0,0-3.32,7.92,11.24,11.24,0,0,0,11.18,11.23h0a11.21,11.21,0,0,0,8.25-3.52,10.58,10.58,0,0,0,3-7.69v0a11.24,11.24,0,0,0-11.37-11.29Z" fill="#231f20"></path><path d="M83.43,123.24a21.74,21.74,0,0,0,11.73,6.59,24.47,24.47,0,0,1,15.66,10.67c4.69,7.28,9.15,14.7,13.71,22.06l14.31,23.07q5.79,9.36,11.57,18.71,4.88,7.91,9.79,15.78a10.19,10.19,0,0,0,10.89,4.39,9.69,9.69,0,0,0,7.72-8.56,7.86,7.86,0,0,0-1.1-5.1c-2.44-3.69-4.87-7.38-7.36-11q-9.27-13.59-18.59-27.15-6.8-9.91-13.57-19.86-5.37-7.83-10.73-15.66a63.58,63.58,0,0,1-4.23-6.43,23.71,23.71,0,0,1-2-16.86c3-12.92-6.86-25.09-20.48-25.69a1.54,1.54,0,0,0-1.6.62c-.37.61-.06,1.12.28,1.64l7.11,10.91a3,3,0,0,1-1.08,4.5L94,112.69a3.17,3.17,0,0,1-4.42-.94c-1.24-1.86-2.45-3.74-3.67-5.62h0q-1.81-2.77-3.62-5.56a1.51,1.51,0,0,0-1.39-.88,1.37,1.37,0,0,0-1.24,1C76.23,109,77.42,116.48,83.43,123.24Zm81.3,94.31a4.44,4.44,0,0,1,1.49-6.29,4.83,4.83,0,0,1,6.68,1.4,4.5,4.5,0,0,1-1.61,6.37A4.93,4.93,0,0,1,164.73,217.55Z" fill="#fff" stroke="#231f20" stroke-linecap="round" stroke-linejoin="round"></path><path d="M113.09,84.68a19,19,0,1,0,0-37.92v19h-19A19,19,0,0,0,113.09,84.68Z" fill="#fff"></path><path d="M113.09,85.18A19.48,19.48,0,0,1,93.63,65.72a.5.5,0,0,1,.5-.5h18.46V46.76a.5.5,0,0,1,.5-.5,19.46,19.46,0,1,1,0,38.92Zm-18.46-19a18.46,18.46,0,1,0,19-18.95V65.72a.5.5,0,0,1-.5.5Z" fill="#231f20"></path><path d="M89.64,61.16h19v-19A19,19,0,0,0,89.64,61.16Z" fill="#fff"></path><path d="M108.6,61.66h-19a.5.5,0,0,1-.5-.5A19.48,19.48,0,0,1,108.6,41.7a.5.5,0,0,1,.5.5v19A.5.5,0,0,1,108.6,61.66Zm-18.45-1H108.1v-18A18.49,18.49,0,0,0,90.15,60.66Z" fill="#231f20"></path><rect x="92.45" y="195.06" width="15.31" height="48.95" fill="#fff"></rect><path d="M107.76,244.51H92.45a.5.5,0,0,1-.5-.5V195.06a.5.5,0,0,1,.5-.5h15.31a.5.5,0,0,1,.5.5V244A.5.5,0,0,1,107.76,244.51Zm-14.81-1h14.31V195.56H93Z" fill="#231f20"></path><rect x="113.64" y="208.05" width="15.31" height="35.96" fill="#fff"></rect><path d="M129,244.51H113.64a.5.5,0,0,1-.5-.5v-36a.5.5,0,0,1,.5-.5H129a.5.5,0,0,1,.5.5v36A.5.5,0,0,1,129,244.51Zm-14.81-1h14.31v-35H114.14Z" fill="#231f20"></path><rect x="134.83" y="226.03" width="15.31" height="17.98" fill="#fff"></rect><path d="M150.14,244.51H134.83a.5.5,0,0,1-.5-.5V226a.5.5,0,0,1,.5-.5h15.31a.5.5,0,0,1,.5.5v18A.5.5,0,0,1,150.14,244.51Zm-14.81-1h14.31v-17H135.33Z" fill="#231f20"></path><path d="M157.84,244.51h-71a.5.5,0,0,1-.5-.5.51.51,0,0,1,.5-.5h71.05a.5.5,0,0,1,.5.5A.5.5,0,0,1,157.84,244.51Z" fill="#231f20"></path><path d="M273.73,46.76h-40a4.44,4.44,0,0,0-4.44,4.44V69.32a4.44,4.44,0,0,0,4.44,4.45h3.63v6.79l5.52-6.79h30.88a4.44,4.44,0,0,0,4.44-4.45V51.2A4.44,4.44,0,0,0,273.73,46.76Z" fill="#fff"></path><path d="M237.33,81.06a.45.45,0,0,1-.16,0,.51.51,0,0,1-.34-.47V74.27H233.7a5,5,0,0,1-4.94-5V51.2a5,5,0,0,1,4.94-4.94h40a4.94,4.94,0,0,1,4.94,4.94V69.32a5,5,0,0,1-4.94,5H243.09l-5.37,6.6A.51.51,0,0,1,237.33,81.06Zm-3.63-33.8a4,4,0,0,0-3.94,3.94V69.32a4,4,0,0,0,3.94,4h3.63a.5.5,0,0,1,.5.5v5.38l4.63-5.7a.5.5,0,0,1,.39-.18h30.88a3.94,3.94,0,0,0,3.94-4V51.2a3.94,3.94,0,0,0-3.94-3.94Z" fill="#231f20"></path><path d="M271.64,54.77H235.79a.5.5,0,0,1-.5-.5.51.51,0,0,1,.5-.5h35.85a.5.5,0,0,1,.5.5A.5.5,0,0,1,271.64,54.77Z" fill="#d1d3d4"></path><path d="M271.64,60.66H235.79a.51.51,0,0,1-.5-.5.5.5,0,0,1,.5-.5h35.85a.5.5,0,0,1,.5.5A.5.5,0,0,1,271.64,60.66Z" fill="#d1d3d4"></path><path d="M262.45,66.54H235.79a.5.5,0,0,1-.5-.5.51.51,0,0,1,.5-.5h26.66a.51.51,0,0,1,.5.5A.5.5,0,0,1,262.45,66.54Z" fill="#d1d3d4"></path></g></svg>